<svg xmlns="http://www.w3.org/2000/svg" width="104" height="36" viewBox="0 0 104 36" fill="none">
  <title id="logoTitle">Gymdues</title>
  <path d="M43.2236 7.76572H47.9995V13.1848C47.9995 14.5678 47.5686 15.6304 46.7068 16.3702C45.8509 17.1124 44.5881 17.4823 42.9123 17.4823C41.2366 17.4823 39.9678 17.1124 39.106 16.3702C38.2501 15.6304 37.8252 14.5678 37.8252 13.1848V4.29753C37.8252 2.90979 38.2501 1.84718 39.106 1.11208C39.9678 0.372265 41.2366 0 42.9123 0C44.5881 0 45.8509 0.372265 46.7068 1.11208C47.5686 1.84718 47.9995 2.90979 47.9995 4.29753V5.95623H44.7796V4.11847C44.7796 3.50353 44.615 3.07 44.2889 2.8179C43.9687 2.56815 43.5408 2.44092 43.0081 2.44092C42.4725 2.44092 42.0415 2.56815 41.7154 2.8179C41.3952 3.07 41.2366 3.50353 41.2366 4.11847V13.3544C41.2366 13.9717 41.3952 14.4005 41.7154 14.6455C42.0415 14.8906 42.4725 15.0131 43.0081 15.0131C43.5408 15.0131 43.9687 14.8906 44.2889 14.6455C44.615 14.4005 44.7796 13.9717 44.7796 13.3544V10.2066H43.2236V7.76572Z" fill="#10B981"></path>
  <path d="M53.403 11.6203L49.0819 0.188477H52.6489L55.2583 7.98247L57.8677 0.188477H61.1235L56.8144 11.6203V17.2844H53.403V11.6203Z" fill="#10B981"></path>
  <path d="M69.7058 12.3271L72.0399 0.188477H76.78V17.2844H73.5601V5.0232L71.202 17.2844H67.9702L65.4326 5.19284V17.2844H62.4521V0.188477H67.1922L69.7058 12.3271Z" fill="#10B981"></path>
  <path d="M4.14169 3.97998L0.802124 20.0015L11.0961 4.88001L4.14169 3.97998Z" fill="#10B981"></path>
  <path d="M2.11853 20.0962L11.5447 24.0733L3.7524 17.6953L2.11853 20.0962Z" fill="#10B981"></path>
  <mask id="mask0_5_55" style="mask-type:luminance" maskUnits="userSpaceOnUse" x="4" y="2" width="16" height="15">
    <path d="M4.52148 2.46777H19.8428V16.7552H4.52148V2.46777Z" fill="white"></path>
  </mask>
  <g mask="url(#mask0_5_55)">
    <path d="M19.7502 4.84517L14.1214 2.47021L4.78503 16.178L19.7502 4.84517Z" fill="#10B981"></path>
  </g>
  <path d="M14.5194 24.8294C14.5882 24.7093 14.663 24.575 14.7648 24.403C15.6535 22.8668 15.1388 20.8924 13.876 17.7847C13.071 15.7985 14.0885 14.7924 14.7677 14.3683C14.8306 14.3283 14.9024 14.3 14.9742 14.2694C14.5493 12.778 15.061 11.1546 16.5363 9.99541C18.8255 8.19299 22.5391 8.19064 24.8283 9.99305C27.1176 11.7978 27.1176 14.7218 24.8283 16.5242C23.6104 17.4831 21.9885 17.9143 20.3935 17.853C20.4414 17.9425 21.7162 21.2505 21.7162 21.2505L34.0361 11.918L23.3142 3.47607L5.0094 17.3394L14.5194 24.8294Z" fill="#10B981"></path>
  <path d="M20.7288 21.9971L19.3882 18.4323C19.2655 18.192 19.1039 17.9211 18.9213 17.6407C18.3019 16.6794 17.4371 15.6168 16.8715 15.2681C16.4945 15.0348 15.7883 14.9571 15.5219 15.122C15.4262 15.1809 15.3334 15.2587 15.2436 15.3435C15.2317 15.3553 15.2197 15.3671 15.2107 15.3765C15.1688 15.4189 15.1329 15.4637 15.094 15.5108C15.079 15.5343 15.0611 15.5579 15.0461 15.5815C15.0162 15.6262 14.9893 15.671 14.9653 15.7205C14.9474 15.7535 14.9294 15.7912 14.9145 15.8289C14.8965 15.876 14.8785 15.9207 14.8636 15.9726C14.8516 16.0197 14.8426 16.0715 14.8307 16.1257C14.8217 16.1728 14.8127 16.22 14.8097 16.2742C14.8037 16.3354 14.8067 16.4037 14.8067 16.4721C14.8097 16.5239 14.8067 16.571 14.8127 16.6252C14.8217 16.7077 14.8396 16.7996 14.8576 16.8915C14.8666 16.9386 14.8726 16.981 14.8845 17.0305C14.9234 17.1742 14.9713 17.3273 15.0371 17.4923C16.3927 20.8285 16.9254 22.982 15.875 24.8009C15.7553 25.0035 15.6686 25.152 15.6027 25.2745C15.5997 25.2768 15.5997 25.2792 15.5967 25.2815C15.5339 25.397 15.489 25.4865 15.4561 25.5643C15.3903 25.7198 15.3663 25.8376 15.3244 26.0708L15.2376 26.5326L10.1864 26.0708C10.1924 26.8601 10.4108 28.5235 11.931 30.1233L12.0537 30.2529V32.715L22.1203 32.576H21.5278V30.1469L21.5966 30.0432C21.6265 29.9985 24.5741 25.4606 25.1875 21.9477C25.3072 21.2573 25.406 20.4633 25.4748 19.8201L21.1567 23.1328L20.7288 21.9971Z" fill="#10B981"></path>
  <mask id="mask1_5_55" style="mask-type:luminance" maskUnits="userSpaceOnUse" x="0" y="20" width="13" height="6">
    <path d="M0 20.374H12.1822V25.8025H0V20.374Z" fill="white"></path>
  </mask>
  <g mask="url(#mask1_5_55)">
    <path d="M0.676337 20.5933L0.0269775 23.7151L11.6885 25.223L0.676337 20.5933Z" fill="#10B981"></path>
  </g>
  <path d="M46.4771 21.0718C49.2062 21.0718 51.2949 21.6537 52.7492 22.8153C54.2096 23.9792 54.9397 25.6568 54.9397 27.8479C54.9397 30.4444 54.0899 32.4423 52.3902 33.8419C50.6964 35.2367 48.2666 35.9341 45.1006 35.9341C43.1196 35.9341 40.7944 35.8634 38.1222 35.7267L38.4095 31.4481L38.1222 21.1566L46.4771 21.0718ZM46.1898 32.579C47.0816 32.579 47.7608 32.2963 48.2247 31.7308C48.6945 31.1653 48.9309 30.2394 48.9309 28.9506C48.9309 27.8574 48.8351 26.9974 48.6436 26.3683C48.4581 25.7345 48.1558 25.2798 47.7339 25.0018C47.309 24.719 46.7285 24.5777 45.9863 24.5777C45.2681 24.5777 44.5529 24.6106 43.8437 24.6719L43.6403 30.9957L43.7001 32.3905C44.8492 32.5177 45.6781 32.579 46.1898 32.579Z" fill="#10B981"></path>
  <path d="M72.5773 28.5455L72.5534 30.8639C72.5354 32.5179 71.8292 33.7854 70.4347 34.6713C69.0463 35.5572 67.0533 36.0002 64.4618 36.0002C61.9631 36.0002 60.051 35.5572 58.7283 34.6713C57.4027 33.7854 56.7683 32.5179 56.8251 30.8639L56.9089 28.5455L56.7413 21.1567H62.4868L62.2355 30.2513C62.2115 31.0194 62.3941 31.5754 62.7861 31.9194C63.1751 32.2658 63.8095 32.4378 64.6893 32.4378C65.581 32.4378 66.2274 32.2658 66.6284 31.9194C67.0353 31.5754 67.2268 31.0194 67.2029 30.2513L66.9515 21.1567H72.7808L72.5773 28.5455Z" fill="#10B981"></path>
  <path d="M88.8784 32.1268L89.1896 32.4378L88.8544 35.7269H75.8074L76.0946 31.4482L75.8074 21.1567H89.0818L89.3931 21.4772L89.022 24.7663L84.4735 24.6249H81.5289L81.4691 26.6794H84.3059L87.2744 26.604L87.5976 26.9245L87.2505 30.2136L83.9348 30.1476H81.3613L81.3254 30.9958L81.3853 32.2587H84.1383L88.8784 32.1268Z" fill="#10B981"></path>
  <path d="M98.2905 20.8926C100.101 20.8926 101.893 21.1541 103.665 21.6748L102.743 25.3503L101.941 25.6142C101.142 25.2255 100.352 24.9215 99.5712 24.7C98.7872 24.4739 98.1588 24.3608 97.68 24.3608C97.2491 24.3608 96.902 24.4314 96.6387 24.5681C96.3813 24.7 96.2556 24.8767 96.2556 25.0959C96.2556 25.3857 96.4501 25.6307 96.8421 25.831C97.2312 26.0336 97.8865 26.2998 98.8052 26.632C99.8645 27.009 100.738 27.3577 101.427 27.6782C102.112 27.9986 102.71 28.4415 103.222 29.007C103.74 29.5677 104 30.2604 104 31.0898C104 32.0087 103.68 32.838 103.042 33.5778C102.402 34.32 101.492 34.9114 100.313 35.3496C99.1314 35.7831 97.7578 35.9999 96.1958 35.9999C94.2567 35.9999 92.2158 35.7148 90.0792 35.1423L90.9051 31.2217L91.4797 30.9579C92.3565 31.4809 93.2931 31.8956 94.2926 32.2019C95.298 32.5105 96.1299 32.6637 96.7943 32.6637C97.3269 32.6637 97.7159 32.5953 97.9553 32.4563C98.1947 32.3126 98.3144 32.1335 98.3144 31.9191C98.3144 31.6058 98.105 31.3419 97.692 31.1275C97.285 30.9084 96.6267 30.6421 95.717 30.3264C94.6636 29.9636 93.7958 29.6196 93.1195 29.2992C92.4492 28.9787 91.8627 28.5358 91.36 27.9703C90.8632 27.4048 90.6179 26.7122 90.6179 25.8875C90.6179 24.9404 90.941 24.0875 91.5874 23.3335C92.2398 22.5748 93.1465 21.9764 94.3046 21.5429C95.4686 21.1093 96.7973 20.8926 98.2905 20.8926Z" fill="#10B981"></path>
</svg>

